<?xml version="1.0" encoding="UTF-8"?>
<svg width="114px" height="150px" viewBox="0 0 114 150" version="1.1" xmlns="http://www.w3.org/2000/svg" xmlns:xlink="http://www.w3.org/1999/xlink">
    <!-- Generator: Sketch 54.1 (76490) - https://sketchapp.com -->
    <title>cover</title>
    <desc>Created with Sketch.</desc>
    <g id="cover" stroke="none" stroke-width="1" fill="none" fill-rule="evenodd">
        <path d="M103,62.5 L97.5,62.5 L97.5,60 C97.5,57.6585072 95.4869344,55.5242684 92.9431047,55.6419428 L92.42,55.666141 L92.42,54 C92.42,52.6542666 90.8963681,51.5 88.96,51.5 C87.0236319,51.5 85.5,52.6542666 85.5,54 L85.5,57.5 L83,57.5 C81.0670034,57.5 79.5,59.0670034 79.4999478,60.9927783 C79.5075909,61.5218977 79.5192673,61.8513249 79.5304066,61.9292012 L79.612053,62.5 L78,62.5 C76.236764,62.5 74.7780593,63.8038529 74.5354444,65.5 L106.464556,65.5 C106.221941,63.8038529 104.763236,62.5 103,62.5 Z M78.5404823,62.0707988 L79.0354444,62 L79.0354444,61.5 C79.0060506,61.3604146 79.0027987,61.1937479 79,61 C79,58.790861 80.790861,57 83,57 L85,57 L85,54 C85,52.3431458 86.7729524,51 88.96,51 C91.1470476,51 92.92,52.3431458 92.92,54 L92.92,54.6419882 C92.9148684,54.6422059 92.9148684,54.8090355 92.92,55.1424769 C96,55 98,57.6486456 98,60 L98,62 L103,62 C105.209139,62 107,63.790861 107,66 L74,66 C74,63.790861 75.790861,62 78,62 L78.5325145,62 C78.53502,62.0276047 78.5376717,62.0511497 78.5404823,62.0707988 Z" id="cloud" fill="#FFFFFF" fill-rule="nonzero"></path>
        <polygon id="road" fill="#CC0039" fill-rule="nonzero" points="13 91 101 91 101 90 13 90"></polygon>
        <g id="cables" transform="translate(13.000000, 62.000000)" fill="#CC0039" fill-rule="nonzero">
            <path d="M44,28.25 C55.287671,28.25 63.2916618,19.4478394 68.0151439,1.92094157 C73.3349249,19.451983 79.9785472,28.25 88,28.25 L88,27.75 C80.1500547,27.75 73.5444119,18.8323822 68.2396995,0.928977918 L67.7580008,0.93725946 C63.1166787,18.8395016 55.1962357,27.75 44,27.75 C32.8037643,27.75 24.8833213,18.8395016 20.2419992,0.93725946 L19.7603005,0.928977918 C14.4555881,18.8323822 7.8499453,27.75 0,27.75 L0,28.25 C8.02145017,28.25 14.6650707,19.4519888 19.9848508,1.92095893 C24.7083382,19.4478394 32.712329,28.25 44,28.25 Z" id="cable"></path>
            <polygon id="cable" points="3.25 26.25 3.25 28.75 3.75 28.75 3.75 26.25"></polygon>
            <polygon id="cable" points="7.25 23.25 7.25 28.75 7.75 28.75 7.75 23.25"></polygon>
            <polygon id="cable" points="11.25 18.25 11.25 28.75 11.75 28.75 11.75 18.25"></polygon>
            <polygon id="cable" points="15.25 11.25 15.25 28.75 15.75 28.75 15.75 11.25"></polygon>
            <polygon id="cable" points="36.25 26.25 36.25 28.75 36.75 28.75 36.75 26.25"></polygon>
            <polygon id="cable" points="32.25 23.25 32.25 28.75 32.75 28.75 32.75 23.25"></polygon>
            <polygon id="cable" points="28.25 18.25 28.25 28.75 28.75 28.75 28.75 18.25"></polygon>
            <polygon id="cable" points="24.25 11.25 24.25 28.75 24.75 28.75 24.75 11.25"></polygon>
            <polygon id="cable" points="84.25 26.25 84.25 28.75 84.75 28.75 84.75 26.25"></polygon>
            <polygon id="cable" points="80.25 23.25 80.25 28.75 80.75 28.75 80.75 23.25"></polygon>
            <polygon id="cable" points="76.25 18.25 76.25 28.75 76.75 28.75 76.75 18.25"></polygon>
            <polygon id="cable" points="72.25 11.25 72.25 28.75 72.75 28.75 72.75 11.25"></polygon>
            <polygon id="cable" points="51.25 26.25 51.25 28.75 51.75 28.75 51.75 26.25"></polygon>
            <polygon id="cable" points="55.25 23.25 55.25 28.75 55.75 28.75 55.75 23.25"></polygon>
            <polygon id="cable" points="59.25 18.25 59.25 28.75 59.75 28.75 59.75 18.25"></polygon>
            <polygon id="cable" points="63.25 11.25 63.25 28.75 63.75 28.75 63.75 11.25"></polygon>
        </g>
        <g id="pillar" transform="translate(29.000000, 63.000000)">
            <polygon fill="#CC0039" points="7 34 7 21 6 21 6 9 5 9 5 0 3 0 3 9 2 9 2 21 1 21 1 34 0 34 0 36 8 36 8 34"></polygon>
            <polygon id="shadow" fill-opacity="0.2" fill="#000000" fill-rule="nonzero" points="1 21 1 34 2 34 2 21"></polygon>
            <polygon id="shadow" fill-opacity="0.2" fill="#000000" fill-rule="nonzero" points="2 9 2 21 3 21 3 9"></polygon>
            <polygon id="shadow" fill-opacity="0.2" fill="#000000" fill-rule="nonzero" points="3 0 3 9 4 9 4 0"></polygon>
        </g>
        <g id="pillar" transform="translate(77.000000, 63.000000)">
            <polygon fill="#CC0039" points="7 34 7 21 6 21 6 9 5 9 5 0 3 0 3 9 2 9 2 21 1 21 1 34 0 34 0 36 8 36 8 34"></polygon>
            <polygon id="shadow" fill-opacity="0.2" fill="#000000" fill-rule="nonzero" points="1 21 1 34 2 34 2 21"></polygon>
            <polygon id="shadow" fill-opacity="0.2" fill="#000000" fill-rule="nonzero" points="2 9 2 21 3 21 3 9"></polygon>
            <polygon id="shadow" fill-opacity="0.2" fill="#000000" fill-rule="nonzero" points="3 0 3 9 4 9 4 0"></polygon>
        </g>
        <path d="M36,74.7649383 L30.5,74.7649383 L30.5,73.7649383 C30.5,71.221014 29.7580286,70.8646721 25.92,70.8646721 L25.42,70.8646721 L25.42,69.1996296 C25.42,68.3400639 23.9076304,67.5 21.96,67.5 C20.0123696,67.5 18.5,68.3400639 18.5,69.1996296 L18.5,74.7649383 L11,74.7649383 C9.23676405,74.7649383 7.77805926,76.0687912 7.53544443,77.7649383 L39.4645556,77.7649383 C39.2219407,76.0687912 37.763236,74.7649383 36,74.7649383 Z M25.92,69.1996296 L25.92,70.3646721 C29,70.3646721 31,70.3646721 31,73.7649383 L31,74.2649383 L36,74.2649383 C38.209139,74.2649383 40,76.0557993 40,78.2649383 L7,78.2649383 C7,76.0557993 8.790861,74.2649383 11,74.2649383 L18,74.2649383 L18,69.1996296 C18,67.9848077 19.7729524,67 21.96,67 C24.1470476,67 25.92,67.9848077 25.92,69.1996296 Z" id="cloud" fill="#FFFFFF" fill-rule="nonzero"></path>
    </g>
</svg>