<?xml version="1.0" encoding="UTF-8"?>
<svg width="114px" height="150px" viewBox="0 0 114 150" version="1.1" xmlns="http://www.w3.org/2000/svg" xmlns:xlink="http://www.w3.org/1999/xlink">
    <!-- Generator: Sketch 52.5 (67469) - http://www.bohemiancoding.com/sketch -->
    <title>jdpower</title>
    <desc>Created with Sketch.</desc>
    <g id="jdpower" stroke="none" stroke-width="1" fill="none" fill-rule="evenodd">
        <g id="Group-3" transform="translate(13.000000, 29.000000)">
            <g id="Group-3-Copy" transform="translate(25.000000, 19.000000)">
                <path d="M4.41307694,14.217993 L4.41307694,49.0975 L33.5869231,49.0975 L33.5869231,14.217993 L33.5261871,14.217993 L33.4977082,13.9471231 C32.6843292,6.21089089 26.4491081,0.302500013 19,0.302500013 C11.5508919,0.302500013 5.31567084,6.21089089 4.50229182,13.9471231 L4.47381286,14.217993 L4.41307694,14.217993 Z" id="Combined-Shape" stroke="#FFFFFF" stroke-width="0.605000026" fill-rule="nonzero"></path>
                <ellipse id="Oval-Copy" fill="#F49322" fill-rule="nonzero" cx="19" cy="15.1357143" rx="9.22596154" ry="9.37857143"></ellipse>
                <path d="M4.94411058,30.4827586 L4.94411058,46.4349754 L5.10259986,46.4349754 C5.56370248,46.4349754 5.9375,46.8087729 5.9375,47.2698755 L5.9375,48.4714286 L0.639423077,48.4714286 L0.639423077,47.2698755 C0.639423077,46.8087729 1.0132206,46.4349754 1.47432322,46.4349754 L1.6328125,46.4349754 L1.6328125,30.4827586 L1.05687315,30.4827586 C0.826321839,30.4827586 0.639423077,30.2958599 0.639423077,30.0653086 L0.639423077,29.6206144 C0.639423077,29.1595118 1.0132206,28.7857143 1.47432322,28.7857143 L5.10259986,28.7857143 C5.56370248,28.7857143 5.9375,29.1595118 5.9375,29.6206144 L5.9375,30.0653086 C5.9375,30.2958599 5.75060124,30.4827586 5.52004993,30.4827586 L4.94411058,30.4827586 Z" id="Combined-Shape" fill="#F49322" fill-rule="nonzero"></path>
                <path d="M36.1844952,30.4827586 L36.1844952,46.4349754 L36.3429845,46.4349754 C36.8040871,46.4349754 37.1778846,46.8087729 37.1778846,47.2698755 L37.1778846,48.4714286 L31.8798077,48.4714286 L31.8798077,47.2698755 C31.8798077,46.8087729 32.2536052,46.4349754 32.7147078,46.4349754 L32.8731971,46.4349754 L32.8731971,30.4827586 L32.2972578,30.4827586 C32.0667065,30.4827586 31.8798077,30.2958599 31.8798077,30.0653086 L31.8798077,29.6206144 C31.8798077,29.1595118 32.2536052,28.7857143 32.7147078,28.7857143 L36.3429845,28.7857143 C36.8040871,28.7857143 37.1778846,29.1595118 37.1778846,29.6206144 L37.1778846,30.0653086 C37.1778846,30.2958599 36.9909859,30.4827586 36.7604345,30.4827586 L36.1844952,30.4827586 Z" id="Combined-Shape-Copy-2" fill="#F49322" fill-rule="nonzero"></path>
                <polygon id="Path-3" fill-opacity="0.2" fill="#000000" points="32.6105769 30.6428571 36.0817308 30.6428571 36.0817308 31.7571429"></polygon>
                <path d="M1.61082667,48.2857143 L36.3891733,48.2857143 C37.2283592,48.2857143 37.9086538,48.9660089 37.9086538,49.8051948 L37.9086538,49.8051948 C37.9086538,50.6619875 37.2433069,51.371525 36.3882826,51.426545 C30.4472151,51.808849 24.5953431,52 18.8326668,52 C13.086918,52 7.34666857,51.8099703 1.6119186,51.4299109 L1.61192077,51.4298782 C0.756338355,51.3731761 0.0913461538,50.6626541 0.0913461538,49.8051948 L0.0913461538,49.8051948 C0.0913461538,48.9660089 0.771640755,48.2857143 1.61082667,48.2857143 Z" id="Rectangle" fill="#F49322" fill-rule="nonzero"></path>
                <rect id="Rectangle" fill="#F49322" fill-rule="nonzero" x="10.1394231" y="33.6142857" width="17.9038462" height="8.17142857"></rect>
                <polygon id="Path-3" fill-opacity="0.2" fill="#000000" points="1.73557692 30.6428571 5.20673077 30.6428571 5.20673077 31.7571429"></polygon>
                <rect id="Rectangle" fill-opacity="0.2" fill="#000000" x="0.639423077" y="48.2857143" width="36.5384615" height="1"></rect>
            </g>
            <g id="Group-2" transform="translate(0.000000, 37.000000)" fill-rule="nonzero" stroke="#FFFFFF" stroke-width="0.605000026">
                <g id="Group" transform="translate(43.908524, 0.000000)">
                    <path d="M8.53482596,36.0840416 C9.58495811,34.8708198 10.1215029,33.5500112 10.152845,32.1127921 C10.1840194,30.6832678 9.71003914,29.3936997 8.72302041,28.2324327 C7.67288826,29.4456545 7.13634352,30.7664631 7.10500133,32.2036822 C7.07382695,33.6332065 7.54780723,34.9227746 8.53482596,36.0840416 Z" id="Oval" transform="translate(8.628923, 32.158237) rotate(-330.000000) translate(-8.628923, -32.158237) "></path>
                    <path d="M12.2528373,43.1236559 C13.315157,41.787326 13.8385602,40.3106995 13.8290041,38.683964 C13.8194352,37.055041 13.2771433,35.5691733 12.1959768,34.2172042 C11.1336571,35.5535341 10.6102539,37.0301606 10.6198099,38.6568961 C10.6293788,40.2858191 11.1716708,41.7716868 12.2528373,43.1236559 Z" id="Oval-Copy-2" transform="translate(12.224407, 38.670430) rotate(-263.000000) translate(-12.224407, -38.670430) "></path>
                    <path d="M21.5729484,38.2094897 C22.652533,36.8583763 23.1933726,35.372881 23.2015954,33.7438061 C23.2098088,32.1166113 22.6852022,30.6390577 21.6218141,29.3013845 C20.5422295,30.6524979 20.00139,32.1379932 19.9931671,33.7670681 C19.9849537,35.3942628 20.5095604,36.8718165 21.5729484,38.2094897 Z" id="Oval-Copy-3" transform="translate(21.597381, 33.755437) rotate(-276.000000) translate(-21.597381, -33.755437) "></path>
                    <path d="M29.0828106,32.8640777 C30.173975,31.5079756 30.7250735,30.0208789 30.7424227,28.3938535 C30.7597296,26.7707879 30.2428669,25.3004442 29.1858669,23.9726883 C28.0947025,25.3287903 27.5436039,26.815887 27.5262548,28.4429125 C27.5089479,30.065978 28.0258106,31.5363217 29.0828106,32.8640777 Z" id="Oval-Copy-4" transform="translate(29.134339, 28.418383) rotate(-283.000000) translate(-29.134339, -28.418383) "></path>
                    <path d="M34.9656122,25.6609014 C36.0762095,24.3020649 36.6428665,22.8172491 36.6723047,21.1978138 C36.7016213,19.5850701 36.19305,18.1286972 35.1404414,16.8179534 C34.0298441,18.1767899 33.463187,19.6616056 33.4337488,21.2810409 C33.4044322,22.8937847 33.9130035,24.3501576 34.9656122,25.6609014 Z" id="Oval-Copy-5" transform="translate(35.053027, 21.239427) rotate(-294.000000) translate(-35.053027, -21.239427) "></path>
                    <path d="M38.5627722,17.6009912 C39.6977711,16.2488662 40.2809454,14.7758567 40.319723,13.1734452 C40.3582887,11.5797871 39.8516968,10.1443311 38.7932118,8.8556082 C37.6582129,10.2077332 37.0750386,11.6807428 37.036261,13.2831543 C36.9976953,14.8768123 37.5042872,16.3122683 38.5627722,17.6009912 Z" id="Oval-Copy-6" transform="translate(38.677992, 13.228300) rotate(-309.000000) translate(-38.677992, -13.228300) "></path>
                    <path d="M36.2990643,9.18045753 C37.4462213,7.88624378 38.0213379,6.46737804 38.0335659,4.91378532 C38.0457725,3.36292115 37.4949562,1.9560184 36.372116,0.681910193 C35.2249591,1.97612394 34.6498425,3.39498969 34.6376144,4.94858241 C34.6254079,6.49944658 35.1762242,7.90634932 36.2990643,9.18045753 Z" id="Oval-Copy-7" transform="translate(36.335590, 4.931184) rotate(-351.000000) translate(-36.335590, -4.931184) "></path>
                    <path d="M30.6567265,15.4239713 C31.559624,14.3723789 31.99644,13.2096848 31.9754999,11.9246476 C31.9544669,10.6339061 31.4751877,9.44959314 30.5290044,8.36260149 C29.6261069,9.41419396 29.1892909,10.576888 29.210231,11.8619252 C29.231264,13.1526667 29.7105432,14.3369797 30.6567265,15.4239713 Z" id="Oval-Copy-8" transform="translate(30.592865, 11.893286) rotate(-380.000000) translate(-30.592865, -11.893286) "></path>
                    <path d="M27.435058,21.6640629 C28.3485592,20.6102651 28.7938478,19.4480571 28.7795571,18.1664629 C28.7652232,16.8809839 28.2909575,15.7040156 27.3479123,14.6260641 C26.4344111,15.6798618 25.9891225,16.8420698 26.0034132,18.123664 C26.0177471,19.409143 26.4920129,20.5861113 27.435058,21.6640629 Z" id="Oval-Copy-9" transform="translate(27.391485, 18.145063) rotate(-373.000000) translate(-27.391485, -18.145063) "></path>
                    <path d="M22.2611692,27.5781589 C23.1910971,26.5158377 23.6510284,25.3498072 23.6498891,24.0697296 C23.6487495,22.7893431 23.1865103,21.6221365 22.2542289,20.5578917 C21.324301,21.6202129 20.8643698,22.7862434 20.8655091,24.0663209 C20.8666486,25.3467074 21.3288879,26.513914 22.2611692,27.5781589 Z" id="Oval-Copy-10" transform="translate(22.257699, 24.068025) rotate(-361.000000) translate(-22.257699, -24.068025) "></path>
                    <path d="M16.0578606,32.1287619 C16.9995581,31.0532971 17.4720874,29.8782386 17.4843336,28.5939748 C17.4965482,27.3130296 17.0487844,26.1505874 16.1323379,25.0957653 C15.1906404,26.1712301 14.7181111,27.3462886 14.7058648,28.6305524 C14.6936503,29.9114976 15.141414,31.0739398 16.0578606,32.1287619 Z" id="Oval-Copy-11" transform="translate(16.095099, 28.612264) rotate(-349.000000) translate(-16.095099, -28.612264) "></path>
                    <path d="M7.38964445e-13,37.9663782 C8.47357479,37.9663782 30.9670642,29.7574315 35.1268191,10.8706821" id="Path-5"></path>
                </g>
                <g id="Group-Copy" transform="translate(21.954262, 20.595661) scale(-1, 1) translate(-21.954262, -20.595661) ">
                    <path d="M8.53482596,36.0840416 C9.58495811,34.8708198 10.1215029,33.5500112 10.152845,32.1127921 C10.1840194,30.6832678 9.71003914,29.3936997 8.72302041,28.2324327 C7.67288826,29.4456545 7.13634352,30.7664631 7.10500133,32.2036822 C7.07382695,33.6332065 7.54780723,34.9227746 8.53482596,36.0840416 Z" id="Oval" transform="translate(8.628923, 32.158237) rotate(-330.000000) translate(-8.628923, -32.158237) "></path>
                    <path d="M12.2528373,43.1236559 C13.315157,41.787326 13.8385602,40.3106995 13.8290041,38.683964 C13.8194352,37.055041 13.2771433,35.5691733 12.1959768,34.2172042 C11.1336571,35.5535341 10.6102539,37.0301606 10.6198099,38.6568961 C10.6293788,40.2858191 11.1716708,41.7716868 12.2528373,43.1236559 Z" id="Oval-Copy-2" transform="translate(12.224407, 38.670430) rotate(-263.000000) translate(-12.224407, -38.670430) "></path>
                    <path d="M21.5729484,38.2094897 C22.652533,36.8583763 23.1933726,35.372881 23.2015954,33.7438061 C23.2098088,32.1166113 22.6852022,30.6390577 21.6218141,29.3013845 C20.5422295,30.6524979 20.00139,32.1379932 19.9931671,33.7670681 C19.9849537,35.3942628 20.5095604,36.8718165 21.5729484,38.2094897 Z" id="Oval-Copy-3" transform="translate(21.597381, 33.755437) rotate(-276.000000) translate(-21.597381, -33.755437) "></path>
                    <path d="M29.0828106,32.8640777 C30.173975,31.5079756 30.7250735,30.0208789 30.7424227,28.3938535 C30.7597296,26.7707879 30.2428669,25.3004442 29.1858669,23.9726883 C28.0947025,25.3287903 27.5436039,26.815887 27.5262548,28.4429125 C27.5089479,30.065978 28.0258106,31.5363217 29.0828106,32.8640777 Z" id="Oval-Copy-4" transform="translate(29.134339, 28.418383) rotate(-283.000000) translate(-29.134339, -28.418383) "></path>
                    <path d="M34.9656122,25.6609014 C36.0762095,24.3020649 36.6428665,22.8172491 36.6723047,21.1978138 C36.7016213,19.5850701 36.19305,18.1286972 35.1404414,16.8179534 C34.0298441,18.1767899 33.463187,19.6616056 33.4337488,21.2810409 C33.4044322,22.8937847 33.9130035,24.3501576 34.9656122,25.6609014 Z" id="Oval-Copy-5" transform="translate(35.053027, 21.239427) rotate(-294.000000) translate(-35.053027, -21.239427) "></path>
                    <path d="M38.5627722,17.6009912 C39.6977711,16.2488662 40.2809454,14.7758567 40.319723,13.1734452 C40.3582887,11.5797871 39.8516968,10.1443311 38.7932118,8.8556082 C37.6582129,10.2077332 37.0750386,11.6807428 37.036261,13.2831543 C36.9976953,14.8768123 37.5042872,16.3122683 38.5627722,17.6009912 Z" id="Oval-Copy-6" transform="translate(38.677992, 13.228300) rotate(-309.000000) translate(-38.677992, -13.228300) "></path>
                    <path d="M36.2990643,9.18045753 C37.4462213,7.88624378 38.0213379,6.46737804 38.0335659,4.91378532 C38.0457725,3.36292115 37.4949562,1.9560184 36.372116,0.681910193 C35.2249591,1.97612394 34.6498425,3.39498969 34.6376144,4.94858241 C34.6254079,6.49944658 35.1762242,7.90634932 36.2990643,9.18045753 Z" id="Oval-Copy-7" transform="translate(36.335590, 4.931184) rotate(-351.000000) translate(-36.335590, -4.931184) "></path>
                    <path d="M30.6567265,15.4239713 C31.559624,14.3723789 31.99644,13.2096848 31.9754999,11.9246476 C31.9544669,10.6339061 31.4751877,9.44959314 30.5290044,8.36260149 C29.6261069,9.41419396 29.1892909,10.576888 29.210231,11.8619252 C29.231264,13.1526667 29.7105432,14.3369797 30.6567265,15.4239713 Z" id="Oval-Copy-8" transform="translate(30.592865, 11.893286) rotate(-380.000000) translate(-30.592865, -11.893286) "></path>
                    <path d="M27.435058,21.6640629 C28.3485592,20.6102651 28.7938478,19.4480571 28.7795571,18.1664629 C28.7652232,16.8809839 28.2909575,15.7040156 27.3479123,14.6260641 C26.4344111,15.6798618 25.9891225,16.8420698 26.0034132,18.123664 C26.0177471,19.409143 26.4920129,20.5861113 27.435058,21.6640629 Z" id="Oval-Copy-9" transform="translate(27.391485, 18.145063) rotate(-373.000000) translate(-27.391485, -18.145063) "></path>
                    <path d="M22.2611692,27.5781589 C23.1910971,26.5158377 23.6510284,25.3498072 23.6498891,24.0697296 C23.6487495,22.7893431 23.1865103,21.6221365 22.2542289,20.5578917 C21.324301,21.6202129 20.8643698,22.7862434 20.8655091,24.0663209 C20.8666486,25.3467074 21.3288879,26.513914 22.2611692,27.5781589 Z" id="Oval-Copy-10" transform="translate(22.257699, 24.068025) rotate(-361.000000) translate(-22.257699, -24.068025) "></path>
                    <path d="M16.0578606,32.1287619 C16.9995581,31.0532971 17.4720874,29.8782386 17.4843336,28.5939748 C17.4965482,27.3130296 17.0487844,26.1505874 16.1323379,25.0957653 C15.1906404,26.1712301 14.7181111,27.3462886 14.7058648,28.6305524 C14.6936503,29.9114976 15.141414,31.0739398 16.0578606,32.1287619 Z" id="Oval-Copy-11" transform="translate(16.095099, 28.612264) rotate(-349.000000) translate(-16.095099, -28.612264) "></path>
                    <path d="M7.38964445e-13,37.9663782 C8.47357479,37.9663782 30.9670642,29.7574315 35.1268191,10.8706821" id="Path-5"></path>
                </g>
                <circle id="Oval" fill="#CC0039" cx="44" cy="38" r="2.69749999"></circle>
            </g>
            <path d="M72.1979992,2.24933195 C72.1985745,3.12465301 70.570443,3.05555378 70.5711006,4.05593426 C70.5717581,5.05631474 72.1999845,5.26987464 72.2006131,6.22621822 C72.2012417,7.1825618 70.5730808,7.06872689 70.5736353,7.91230882 C70.5741897,8.75589076 72.2022708,8.74834683 72.202831,9.60054597 C72.2032044,10.1686787 71.6608857,10.7418199 70.575875,11.3199696" id="Path-6" stroke="#F49322" stroke-width="0.605000026" fill-rule="nonzero" transform="translate(71.386966, 6.784651) rotate(12.000000) translate(-71.386966, -6.784651) "></path>
            <path d="M26.5002367,9.39093663 C26.4995456,9.93337445 25.4136841,9.89260489 25.4128943,10.5125422 C25.4121045,11.1324796 26.497852,11.2627716 26.4970969,11.8554192 C26.4963419,12.4480668 25.4105157,12.3795745 25.4098497,12.9023435 C25.4091837,13.4251125 26.4951057,13.4183862 26.4944328,13.9464953 C26.4939843,14.2985681 26.1315598,14.6544284 25.4071593,15.0140762" id="Path-6-Copy" stroke-opacity="0.2" stroke="#000000" stroke-width="0.605000026" fill-rule="nonzero" transform="translate(25.953698, 12.202506) rotate(-26.000000) translate(-25.953698, -12.202506) "></path>
            <path d="M16.8239061,79.1400126 C16.8244517,79.6650801 15.7387586,79.6231434 15.7393821,80.2232287 C15.7400056,80.8233139 16.8257886,80.9519062 16.8263847,81.5255756 C16.8269807,82.099245 15.7412598,82.0304734 15.7417855,82.5365019 C15.7423113,83.0425304 16.8279565,83.0384921 16.8284877,83.5496897 C16.8288417,83.8904881 16.4673156,84.2341285 15.7439093,84.580611" id="Path-6-Copy-2" stroke-opacity="0.2" stroke="#000000" stroke-width="0.605000026" fill-rule="nonzero" transform="translate(16.283935, 81.860312) rotate(20.000000) translate(-16.283935, -81.860312) "></path>
            <path d="M70.0343697,83.0078986 C70.0355424,83.8827184 68.225427,83.8123007 68.2267672,84.8121084 C68.2281075,85.811916 70.0384163,86.0267117 70.0396976,86.9825076 C70.0409788,87.9383036 68.2308035,87.8231758 68.2319336,88.6662747 C68.2330638,89.5093736 70.0430765,89.503192 70.0442182,90.3549031 C70.0449793,90.9227106 69.4424062,91.4950709 68.2364989,92.0719842" id="Path-6-Copy-4" stroke="#F49322" stroke-width="0.605000026" fill-rule="nonzero" transform="translate(69.135493, 87.539941) rotate(28.000000) translate(-69.135493, -87.539941) "></path>
            <path d="M66.7424475,32.1633986 C66.7426665,32.7236554 65.6573581,32.6796892 65.6576084,33.3199915 C65.6578587,33.9602937 66.7432032,34.0967232 66.7434425,34.7088392 C66.7436818,35.3209552 65.6583622,35.2483556 65.6585733,35.7882975 C65.6587844,36.3282395 66.7440736,36.3231495 66.7442868,36.868607 C66.7444289,37.2322453 66.3828086,37.5991765 65.6594259,37.9694004" id="Path-6-Copy-3" stroke-opacity="0.2" stroke="#000000" stroke-width="0.605000026" fill-rule="nonzero" transform="translate(66.200948, 35.066400) scale(-1, 1) rotate(7.000000) translate(-66.200948, -35.066400) "></path>
            <path d="M40.5062844,1.21642182 L39.3693137,3.49935454 L41.6489132,3.50218358 L40.5062844,1.21642182 Z" id="Triangle" stroke-opacity="0.2" stroke="#000000" stroke-width="0.605000026" fill-rule="nonzero" transform="translate(40.509823, 2.172087) rotate(25.000000) translate(-40.509823, -2.172087) "></path>
            <polygon id="Triangle-Copy" fill="#F49322" fill-rule="nonzero" transform="translate(80.585886, 67.041531) rotate(93.000000) translate(-80.585886, -67.041531) " points="80.5864373 65.4135198 82.2190073 68.6689902 78.952764 68.6695418"></polygon>
            <path d="M9.96176868,21.5589465 L8.27779177,24.933947 L11.6416608,24.9319046 L9.96176868,21.5589465 Z" id="Triangle-Copy-2" stroke="#F49322" stroke-width="0.605000026" fill-rule="nonzero" transform="translate(9.959380, 23.058826) rotate(-11.000000) translate(-9.959380, -23.058826) "></path>
            <ellipse id="Oval" fill="#F49322" fill-rule="nonzero" cx="55.9947283" cy="10.9783037" rx="1.53742204" ry="1.54240631"></ellipse>
            <polygon id="Rectangle" fill="#F49322" fill-rule="nonzero" transform="translate(82.740955, 25.521732) rotate(-28.000000) translate(-82.740955, -25.521732) " points="81.5673564 23.3473481 83.9203879 23.3441882 83.9145543 27.696116 81.5615228 27.6992759"></polygon>
            <polygon id="Rectangle-Copy-5" fill="#F49322" fill-rule="nonzero" transform="translate(2.411717, 56.768978) rotate(-12.000000) translate(-2.411717, -56.768978) " points="0.966257484 54.139136 3.86063394 54.1372279 3.85717563 59.3988203 0.962799171 59.4007283"></polygon>
            <polygon id="Rectangle-Copy-2" fill="#F49322" fill-rule="nonzero" transform="translate(18.855556, 36.432843) rotate(-70.000000) translate(-18.855556, -36.432843) " points="17.9502973 34.8053091 19.764207 34.8034245 19.7608147 38.0603764 17.946905 38.062261"></polygon>
            <polygon id="Rectangle-Copy-3" fill="#F49322" fill-rule="nonzero" transform="translate(50.402596, 86.640317) rotate(-113.000000) translate(-50.402596, -86.640317) " points="49.5846386 85.101185 51.216969 85.1030831 51.2205544 88.1794491 49.588224 88.177551"></polygon>
        </g>
    </g>
</svg>