<?xml version="1.0" encoding="UTF-8"?>
<svg width="16px" height="36px" viewBox="0 0 16 36" version="1.1" xmlns="http://www.w3.org/2000/svg" xmlns:xlink="http://www.w3.org/1999/xlink">
    <!-- Generator: Sketch 46.2 (44496) - http://www.bohemiancoding.com/sketch -->
    <title>scroll</title>
    <desc>Created with Sketch.</desc>
    <defs></defs>
    <g id="v4-pages" stroke="none" stroke-width="1" fill="none" fill-rule="evenodd">
        <g id="cover" transform="translate(-339.000000, -776.000000)" fill="#979797">
            <g id="scroll" transform="translate(339.000000, 776.000000)">
                <path d="M8,1.07142857 C4.15801913,1.07142857 1.04347826,4.26939464 1.04347826,8.21428571 L1.04347826,16.7857143 C1.04347826,20.7306054 4.15801913,23.9285714 8,23.9285714 C11.8419809,23.9285714 14.9565217,20.7306054 14.9565217,16.7857143 L14.9565217,8.21428571 C14.9565217,4.26939464 11.8419809,1.07142857 8,1.07142857 Z M8,0 C12.418278,0 16,3.67766098 16,8.21428571 L16,16.7857143 C16,21.322339 12.418278,25 8,25 C3.581722,25 0,21.322339 0,16.7857143 L0,8.21428571 C0,3.67766098 3.581722,0 8,0 Z" id="Rectangle-4" fill-rule="nonzero"></path>
                <circle id="Oval" cx="8" cy="6" r="2"></circle>
                <polygon id="Path-2" fill-rule="nonzero" points="3.53033009 29.4696699 2.46966991 30.5303301 8 36.0606602 13.5303301 30.5303301 12.4696699 29.4696699 8 33.9393398"></polygon>
            </g>
        </g>
    </g>
</svg>