<?xml version="1.0" encoding="UTF-8"?>
<svg width="75px" height="67px" viewBox="0 0 75 67" version="1.1" xmlns="http://www.w3.org/2000/svg" xmlns:xlink="http://www.w3.org/1999/xlink">
    <!-- Generator: Sketch 46.2 (44496) - http://www.bohemiancoding.com/sketch -->
    <title>wave</title>
    <desc>Created with Sketch.</desc>
    <defs></defs>
    <g id="v4-pages" stroke="none" stroke-width="1" fill="none" fill-rule="evenodd">
        <g id="cover" transform="translate(-323.000000, -190.000000)">
            <g id="wave" transform="translate(321.000000, 183.000000)">
                <g id="lines" transform="translate(12.052222, 62.609245) scale(-1, 1) rotate(-320.000000) translate(-12.052222, -62.609245) translate(7.552222, 50.109245)" fill-rule="nonzero" fill="#979797">
                    <path d="M-0.816967863,4.5766832 C1.06965604,7.24940039 2,9.88537495 2,12.5 C2,15.1146251 1.06965604,17.7505996 -0.816967863,20.4233168 L0.816967863,21.5766832 C2.93034396,18.5827337 4,15.5520416 4,12.5 C4,9.44795838 2.93034396,6.41726627 0.816967863,3.4233168 L-0.816967863,4.5766832 Z" id="Path-4"></path>
                    <path d="M4.13453412,0.50096788 C6.62095159,4.79647176 7.85528296,8.91798436 7.85528296,12.8730402 C7.85528296,16.8139442 6.62991952,20.6683781 4.16227003,24.4539153 L5.83772997,25.5460847 C8.51045776,21.4459439 9.85528296,17.2157378 9.85528296,12.8730402 C9.85528296,8.54449426 8.51942569,4.08398007 5.86546588,-0.50096788 L4.13453412,0.50096788 Z" id="Path-4"></path>
                </g>
                <g id="lines" transform="translate(64.909289, 18.256900) rotate(-400.000000) translate(-64.909289, -18.256900) translate(59.409289, 4.756900)" fill-rule="nonzero" fill="#979797">
                    <path d="M0.183032137,5.5766832 C2.06965604,8.24940039 3,10.8853749 3,13.5 C3,16.1146251 2.06965604,18.7505996 0.183032137,21.4233168 L1.81696786,22.5766832 C3.93034396,19.5827337 5,16.5520416 5,13.5 C5,10.4479584 3.93034396,7.41726627 1.81696786,4.4233168 L0.183032137,5.5766832 Z" id="Path-4"></path>
                    <path d="M5.13453412,1.50096788 C7.62095159,5.79647176 8.85528296,9.91798436 8.85528296,13.8730402 C8.85528296,17.8139442 7.62991952,21.6683781 5.16227003,25.4539153 L6.83772997,26.5460847 C9.51045776,22.4459439 10.855283,18.2157378 10.855283,13.8730402 C10.855283,9.54449426 9.51942569,5.08398007 6.86546588,0.49903212 L5.13453412,1.50096788 Z" id="Path-4"></path>
                </g>
                <g id="hand" transform="translate(38.220990, 38.845634) rotate(-40.000000) translate(-38.220990, -38.845634) translate(12.720990, 9.845634)">
                    <path d="M7.07248881,58 L1.33416847e-13,46 L0,11.5262454 C-7.81473909e-15,9.57323155 1.58323055,7.990001 3.53624441,7.990001 C5.48925826,7.990001 7.07248881,9.57323155 7.07248881,11.5262454 L7.07248881,29.0273556 L12.0000759,29.0273556 L12.0000759,4.49996203 C12.0000759,2.56698638 13.5670623,1 15.500038,1 C17.4330136,1 19,2.56698638 19,4.49996203 L19,29.0178515 L24.0000319,29.0178515 L24.0000319,3.49998407 C24.0000319,1.56699624 25.5670281,-1.18361368e-16 27.5000159,0 C29.4330038,1.18361368e-16 31,1.56699624 31,3.49998407 L31,29 L36,29 L36,7.53553391 C36,5.58291245 37.5829124,4 39.5355339,4 C41.4881554,4 43.0710678,5.58291245 43.0710678,7.53553391 L43.0710678,58 L7.07248881,58 Z" id="Path-3-Copy" fill="#F49322"></path>
                    <path d="M49.5,22.5 L47,22.5 C45.0581829,22.5 43.5,24.0171781 43.5,25.8684211 L43.5,39.5 L42,39.5 C37.8490439,39.5 34.5,42.7609111 34.5,46.7631579 L34.5,56.5 L49.5,56.5 L49.5,22.5 Z M51,21 L51,58 L33,58 L33,46.7631579 C33,41.9233994 37.0294373,38 42,38 L42,25.8684211 C42,23.1796663 44.2385763,21 47,21 L51,21 Z" id="Path-5-Copy" fill="#CC0039" fill-rule="nonzero"></path>
                </g>
            </g>
        </g>
    </g>
</svg>