<?xml version="1.0" encoding="UTF-8"?>
<svg width="114px" height="150px" viewBox="0 0 114 150" version="1.1" xmlns="http://www.w3.org/2000/svg" xmlns:xlink="http://www.w3.org/1999/xlink">
    <!-- Generator: Sketch 46.2 (44496) - http://www.bohemiancoding.com/sketch -->
    <title>comments</title>
    <desc>Created with Sketch.</desc>
    <defs></defs>
    <g id="v4-pages" stroke="none" stroke-width="1" fill="none" fill-rule="evenodd">
        <g id="comments">
            <path d="M34.1666667,122.833333 L34.1666667,122.166667 C34.1666667,122.074619 34.0920475,122 34,122 C33.9079525,122 33.8333333,122.074619 33.8333333,122.166667 L33.8333333,122.833333 L33.1666667,122.833333 C33.0746192,122.833333 33,122.907953 33,123 C33,123.092047 33.0746192,123.166667 33.1666667,123.166667 L33.8333333,123.166667 L33.8333333,123.833333 C33.8333333,123.925381 33.9079525,124 34,124 C34.0920475,124 34.1666667,123.925381 34.1666667,123.833333 L34.1666667,123.166667 L34.8333333,123.166667 C34.9253808,123.166667 35,123.092047 35,123 C35,122.907953 34.9253808,122.833333 34.8333333,122.833333 L34.1666667,122.833333 Z" id="cross" fill="#DD547D"></path>
            <path d="M35.75,77.25 L35.75,76.25 C35.75,76.1119288 35.6380712,76 35.5,76 C35.3619288,76 35.25,76.1119288 35.25,76.25 L35.25,77.25 L34.25,77.25 C34.1119288,77.25 34,77.3619288 34,77.5 C34,77.6380712 34.1119288,77.75 34.25,77.75 L35.25,77.75 L35.25,78.75 C35.25,78.8880712 35.3619288,79 35.5,79 C35.6380712,79 35.75,78.8880712 35.75,78.75 L35.75,77.75 L36.75,77.75 C36.8880712,77.75 37,77.6380712 37,77.5 C37,77.3619288 36.8880712,77.25 36.75,77.25 L35.75,77.25 Z" id="cross" fill="#DD547D"></path>
            <path d="M78.75,58.25 L78.75,57.25 C78.75,57.1119288 78.6380712,57 78.5,57 C78.3619288,57 78.25,57.1119288 78.25,57.25 L78.25,58.25 L77.25,58.25 C77.1119288,58.25 77,58.3619288 77,58.5 C77,58.6380712 77.1119288,58.75 77.25,58.75 L78.25,58.75 L78.25,59.75 C78.25,59.8880712 78.3619288,60 78.5,60 C78.6380712,60 78.75,59.8880712 78.75,59.75 L78.75,58.75 L79.75,58.75 C79.8880712,58.75 80,58.6380712 80,58.5 C80,58.3619288 79.8880712,58.25 79.75,58.25 L78.75,58.25 Z" id="cross" fill="#FFFFFF"></path>
            <path d="M16.75,87.25 L16.75,86.25 C16.75,86.1119288 16.6380712,86 16.5,86 C16.3619288,86 16.25,86.1119288 16.25,86.25 L16.25,87.25 L15.25,87.25 C15.1119288,87.25 15,87.3619288 15,87.5 C15,87.6380712 15.1119288,87.75 15.25,87.75 L16.25,87.75 L16.25,88.75 C16.25,88.8880712 16.3619288,89 16.5,89 C16.6380712,89 16.75,88.8880712 16.75,88.75 L16.75,87.75 L17.75,87.75 C17.8880712,87.75 18,87.6380712 18,87.5 C18,87.3619288 17.8880712,87.25 17.75,87.25 L16.75,87.25 Z" id="cross" fill="#FFFFFF"></path>
            <path d="M98.75,91.25 L98.75,90.25 C98.75,90.1119288 98.6380712,90 98.5,90 C98.3619288,90 98.25,90.1119288 98.25,90.25 L98.25,91.25 L97.25,91.25 C97.1119288,91.25 97,91.3619288 97,91.5 C97,91.6380712 97.1119288,91.75 97.25,91.75 L98.25,91.75 L98.25,92.75 C98.25,92.8880712 98.3619288,93 98.5,93 C98.6380712,93 98.75,92.8880712 98.75,92.75 L98.75,91.75 L99.75,91.75 C99.8880712,91.75 100,91.6380712 100,91.5 C100,91.3619288 99.8880712,91.25 99.75,91.25 L98.75,91.25 Z" id="cross" fill="#FFFFFF"></path>
            <path d="M52.25,30.25 L52.25,29.25 C52.25,29.1119288 52.3619288,29 52.5,29 C52.6380712,29 52.75,29.1119288 52.75,29.25 L52.75,30.25 L53.75,30.25 C53.8880712,30.25 54,30.3619288 54,30.5 C54,30.6380712 53.8880712,30.75 53.75,30.75 L52.75,30.75 L52.75,31.75 C52.75,31.8880712 52.6380712,32 52.5,32 C52.3619288,32 52.25,31.8880712 52.25,31.75 L52.25,30.75 L51.25,30.75 C51.1119288,30.75 51,30.6380712 51,30.5 C51,30.3619288 51.1119288,30.25 51.25,30.25 L52.25,30.25 Z" id="cross" fill="#FFFFFF"></path>
            <path d="M31,108.25 C30.3096441,108.25 29.75,107.690356 29.75,107 C29.75,106.309644 30.3096441,105.75 31,105.75 C31.6903559,105.75 32.25,106.309644 32.25,107 C32.25,107.690356 31.6903559,108.25 31,108.25 Z M31,107.75 C31.4142136,107.75 31.75,107.414214 31.75,107 C31.75,106.585786 31.4142136,106.25 31,106.25 C30.5857864,106.25 30.25,106.585786 30.25,107 C30.25,107.414214 30.5857864,107.75 31,107.75 Z" id="circle" fill="#DD547D" fill-rule="nonzero"></path>
            <path d="M66.5,124.25 C65.5335017,124.25 64.75,123.466498 64.75,122.5 C64.75,121.533502 65.5335017,120.75 66.5,120.75 C67.4664983,120.75 68.25,121.533502 68.25,122.5 C68.25,123.466498 67.4664983,124.25 66.5,124.25 Z M66.5,123.75 C67.1903559,123.75 67.75,123.190356 67.75,122.5 C67.75,121.809644 67.1903559,121.25 66.5,121.25 C65.8096441,121.25 65.25,121.809644 65.25,122.5 C65.25,123.190356 65.8096441,123.75 66.5,123.75 Z" id="circle" fill="#FFFFFF" fill-rule="nonzero"></path>
            <circle id="circle" fill="#DD547D" cx="91.5" cy="47.5" r="1.5"></circle>
            <circle id="circle" fill="#DD547D" transform="translate(25.500000, 26.500000) scale(-1, 1) translate(-25.500000, -26.500000) " cx="25.5" cy="26.5" r="1.5"></circle>
            <path d="M71.5,75.25 C71.0857864,75.25 70.75,74.9142136 70.75,74.5 C70.75,74.0857864 71.0857864,73.75 71.5,73.75 C71.9142136,73.75 72.25,74.0857864 72.25,74.5 C72.25,74.9142136 71.9142136,75.25 71.5,75.25 Z M71.5,74.75 C71.6380712,74.75 71.75,74.6380712 71.75,74.5 C71.75,74.3619288 71.6380712,74.25 71.5,74.25 C71.3619288,74.25 71.25,74.3619288 71.25,74.5 C71.25,74.6380712 71.3619288,74.75 71.5,74.75 Z" id="circle" fill="#FFFFFF" fill-rule="nonzero"></path>
            <g id="comment" transform="translate(20.000000, 34.000000)">
                <path d="M13.5527864,29.7763932 L13.690983,29.5 L51,29.5 C51.8284271,29.5 52.5,28.8284271 52.5,28 L52.5,5 C52.5,4.17157288 51.8284271,3.5 51,3.5 L6,3.5 C5.17157288,3.5 4.5,4.17157288 4.5,5 L4.5,35.4919503 C8.71569073,35.3546549 11.7106581,33.4606499 13.5527864,29.7763932 Z M6,3 L51,3 C52.1045695,3 53,3.8954305 53,5 L53,28 C53,29.1045695 52.1045695,30 51,30 L14,30 C12,34 8.66666667,36 4,36 L4,5 C4,3.8954305 4.8954305,3 6,3 Z" id="speech-bubble" fill="#FFFFFF" fill-rule="nonzero"></path>
                <path d="M9.5527864,26.7763932 L9.69098301,26.5 L47,26.5 C47.8284271,26.5 48.5,25.8284271 48.5,25 L48.5,2 C48.5,1.17157288 47.8284271,0.5 47,0.5 L2,0.5 C1.17157288,0.5 0.5,1.17157288 0.5,2 L0.5,32.4919503 C4.71569073,32.3546549 7.71065805,30.4606499 9.5527864,26.7763932 Z M2,8.8817842e-16 L47,8.8817842e-16 C48.1045695,4.16539633e-15 49,0.8954305 49,2 L49,25 C49,26.1045695 48.1045695,27 47,27 L10,27 C8,31 4.66666667,33 0,33 L0,2 C-3.57315355e-16,0.8954305 0.8954305,2.02908437e-16 2,8.8817842e-16 Z" id="speech-bubble" fill="#FFFFFF" fill-rule="nonzero"></path>
                <path d="M30.9456407,15.4394515 L26.4394515,19.9456407 L21.9332623,15.4394515 C20.6889126,14.1951017 20.6889126,12.1776121 21.9332623,10.9332623 C23.1776121,9.68891256 25.1951017,9.68891256 26.4394515,10.9332623 C27.6838013,9.68891256 29.7012909,9.68891256 30.9456407,10.9332623 C32.1899905,12.1776121 32.1899905,14.1951017 30.9456407,15.4394515 Z" id="heart" fill="#DD547D"></path>
            </g>
            <g id="comment" transform="translate(42.000000, 79.000000)">
                <path d="M48.5,5 C48.5,4.17157288 47.8284271,3.5 47,3.5 L2,3.5 C1.17157288,3.5 0.5,4.17157288 0.5,5 L0.5,28 C0.5,28.8284271 1.17157288,29.5 2,29.5 L39.309017,29.5 L39.4472136,29.7763932 C41.2893419,33.4606499 44.2843093,35.3546549 48.5,35.4919503 L48.5,5 Z M47,3 C48.1045695,3 49,3.8954305 49,5 L49,36 C44.3333333,36 41,34 39,30 L2,30 C0.8954305,30 0,29.1045695 0,28 L7.10542736e-15,5 C7.10542736e-15,3.8954305 0.8954305,3 2,3 L47,3 Z" id="speech-bubble" fill="#FFFFFF" fill-rule="nonzero"></path>
                <path d="M52.5,2 C52.5,1.17157288 51.8284271,0.5 51,0.5 L6,0.5 C5.17157288,0.5 4.5,1.17157288 4.5,2 L4.5,25 C4.5,25.8284271 5.17157288,26.5 6,26.5 L43.309017,26.5 L43.4472136,26.7763932 C45.2893419,30.4606499 48.2843093,32.3546549 52.5,32.4919503 L52.5,2 Z M51,8.8817842e-16 C52.1045695,2.02908437e-16 53,0.8954305 53,2 L53,33 C48.3333333,33 45,31 43,27 L6,27 C4.8954305,27 4,26.1045695 4,25 L4,2 C4,0.8954305 4.8954305,4.16539633e-15 6,8.8817842e-16 L51,8.8817842e-16 Z" id="speech-bubble" fill="#FFFFFF" fill-rule="nonzero"></path>
                <path d="M23.7263128,17.4237615 L22.5452598,17.4237615 L23.5575909,10.2530828 L24.7386439,10.2530828 L23.7263128,17.4237615 Z M22.9811246,18.6048145 C23.2154617,18.6048145 23.4029285,18.6868313 23.5435308,18.8508672 C23.684133,19.0149032 23.7356864,19.2140867 23.6981925,19.4484238 C23.6606985,19.6827608 23.5458751,19.8819444 23.3537187,20.0459803 C23.1615623,20.2100163 22.9576921,20.292033 22.742102,20.292033 C22.5265118,20.292033 22.3413883,20.2100163 22.1867259,20.0459803 C22.0320634,19.8819444 21.97348,19.6827608 22.0109739,19.4484238 C22.0484679,19.2140867 22.160948,19.0149032 22.3484176,18.8508672 C22.5358873,18.6868313 22.7467875,18.6048145 22.9811246,18.6048145 Z M27.8740583,16.5379718 C27.9115522,16.2755143 27.958419,16.0599274 28.0146599,15.8912047 C28.0709008,15.722482 28.1482308,15.5701652 28.2466524,15.4342497 C28.345074,15.2983342 28.4645841,15.164764 28.6051863,15.0335353 C28.7457886,14.9023065 28.9191954,14.7429597 29.1254121,14.55549 C29.2941348,14.4055143 29.4605116,14.2578842 29.6245475,14.1125952 C29.7885835,13.9673062 29.9409003,13.8149894 30.0815026,13.6556401 C30.2221048,13.4962909 30.3416149,13.3275708 30.4400365,13.1494746 C30.5384581,12.9713784 30.6017281,12.7698515 30.6298486,12.5448879 C30.695463,12.0949608 30.6157895,11.7270571 30.390826,11.4411658 C30.1658624,11.1552746 29.8190487,11.0123311 29.3503745,11.0123311 C28.8723269,11.0123311 28.4645865,11.1529313 28.1271411,11.4341358 C27.7896957,11.7153402 27.5553621,12.0855873 27.4241334,12.5448879 L26.1868398,12.4042864 C26.2993216,12.0199736 26.4656984,11.6778466 26.6859753,11.3778951 C26.9062521,11.0779437 27.1616757,10.8272068 27.4522537,10.6256769 C27.7428317,10.424147 28.0638686,10.2694868 28.4153743,10.1616918 C28.7668799,10.0538967 29.1347836,10 29.5190964,10 C29.9034092,10 30.2549095,10.0538967 30.573608,10.1616918 C30.8923064,10.2694868 31.1594467,10.4288337 31.3750368,10.639737 C31.5906269,10.8506404 31.7476304,11.113094 31.8460519,11.4271057 C31.9444735,11.7411174 31.9655635,12.0996477 31.9093226,12.5027075 C31.8624552,12.8120324 31.7780951,13.0908894 31.6562399,13.3392867 C31.5343846,13.587684 31.3844111,13.8173309 31.2063149,14.0282342 C31.0282187,14.2391376 30.8266919,14.4406645 30.6017283,14.6328209 C30.3767647,14.8249773 30.1471178,15.0194741 29.9127807,15.2163173 C29.744058,15.3569195 29.6104879,15.478773 29.5120663,15.5818813 C29.4136447,15.6849896 29.331628,15.7927831 29.2660136,15.9052649 C29.2003992,16.0177467 29.1511892,16.1419434 29.118382,16.2778589 C29.0855748,16.4137745 29.0551114,16.5801513 29.026991,16.7769944 L28.9285699,17.4237615 L27.7475169,17.4237615 L27.8740583,16.5379718 Z M28.1833817,18.6048145 C28.4177188,18.6048145 28.6051856,18.6868313 28.7457879,18.8508672 C28.8863901,19.0149032 28.9379435,19.2140867 28.9004496,19.4484238 C28.8629557,19.6827608 28.7481322,19.8819444 28.5559758,20.0459803 C28.3638194,20.2100163 28.1599492,20.292033 27.9443591,20.292033 C27.728769,20.292033 27.5436455,20.2100163 27.388983,20.0459803 C27.2343205,19.8819444 27.1757371,19.6827608 27.2132311,19.4484238 C27.250725,19.2140867 27.3632051,19.0149032 27.5506748,18.8508672 C27.7381444,18.6868313 27.9490446,18.6048145 28.1833817,18.6048145 Z" id="!?" fill="#DD547D"></path>
            </g>
        </g>
    </g>
</svg>