<?xml version="1.0" encoding="UTF-8"?>
<svg width="114px" height="150px" viewBox="0 0 114 150" version="1.1" xmlns="http://www.w3.org/2000/svg" xmlns:xlink="http://www.w3.org/1999/xlink">
    <!-- Generator: Sketch 46.2 (44496) - http://www.bohemiancoding.com/sketch -->
    <title>procedures</title>
    <desc>Created with Sketch.</desc>
    <defs>
        <path d="M51.2538419,60.7574351 C47.1221338,55.2898191 32.6551415,55.2673905 25.9469524,57.0639365 C18.7226983,58.9986919 12.3750665,61.8369167 11.3116806,66.3104914 C10.2482947,70.7840661 11.8573808,81.0356432 16.8877448,87.1153859 C20.2413208,91.1685476 24.784427,93.316496 30.5170635,93.5592311 C36.8221927,93.516518 41.396132,90.1075319 46.256923,83.98651 C51.0186261,77.9902658 54.493315,69.2943384 52.1683812,62.5369367 C55.5888012,60.5353281 58.753331,60.4919288 61.7926401,62.3881935 C59.3644503,69.1663119 62.8551554,77.946176 67.6518708,83.98651 C72.5126618,90.1075319 77.0866011,93.516518 83.3917303,93.5592311 C89.1243668,93.316496 93.667473,91.1685476 97.021049,87.1153859 C102.051413,81.0356432 103.660499,70.7840661 102.597113,66.3104914 C101.533727,61.8369167 95.1860955,58.9986919 87.9618414,57.0639365 C81.3057331,55.2813384 67.0108287,55.2895805 62.753045,60.6310704 C59.1260192,58.4119576 55.2500374,58.4601697 51.2538419,60.7574351 Z" id="path-1"></path>
        <filter x="-1.1%" y="-2.7%" width="102.2%" height="110.6%" filterUnits="objectBoundingBox" id="filter-3">
            <feOffset dx="0" dy="2" in="SourceAlpha" result="shadowOffsetOuter1"></feOffset>
            <feColorMatrix values="0 0 0 0 0   0 0 0 0 0   0 0 0 0 0  0 0 0 0.2 0" type="matrix" in="shadowOffsetOuter1"></feColorMatrix>
        </filter>
    </defs>
    <g id="v4-pages" stroke="none" stroke-width="1" fill="none" fill-rule="evenodd">
        <g id="procedures">
            <mask id="mask-2" fill="white">
                <use xlink:href="#path-1"></use>
            </mask>
            <g id="shades">
                <use fill="black" fill-opacity="1" filter="url(#filter-3)" xlink:href="#path-1"></use>
                <use fill="#1A0D1B" fill-rule="evenodd" xlink:href="#path-1"></use>
            </g>
            <path d="M84.8333333,61.8333333 L84.8333333,61.1666667 C84.8333333,61.0746192 84.9079525,61 85,61 C85.0920475,61 85.1666667,61.0746192 85.1666667,61.1666667 L85.1666667,61.8333333 L85.8333333,61.8333333 C85.9253808,61.8333333 86,61.9079525 86,62 C86,62.0920475 85.9253808,62.1666667 85.8333333,62.1666667 L85.1666667,62.1666667 L85.1666667,62.8333333 C85.1666667,62.9253808 85.0920475,63 85,63 C84.9079525,63 84.8333333,62.9253808 84.8333333,62.8333333 L84.8333333,62.1666667 L84.1666667,62.1666667 C84.0746192,62.1666667 84,62.0920475 84,62 C84,61.9079525 84.0746192,61.8333333 84.1666667,61.8333333 L84.8333333,61.8333333 Z" id="cross" fill="#FFFFFF" mask="url(#mask-2)"></path>
            <path d="M81.875,63.625 L82.375,63.625 C82.4440356,63.625 82.5,63.6809644 82.5,63.75 C82.5,63.8190356 82.4440356,63.875 82.375,63.875 L81.875,63.875 L81.875,64.375 C81.875,64.4440356 81.8190356,64.5 81.75,64.5 C81.6809644,64.5 81.625,64.4440356 81.625,64.375 L81.625,63.875 L81.125,63.875 C81.0559644,63.875 81,63.8190356 81,63.75 C81,63.6809644 81.0559644,63.625 81.125,63.625 L81.625,63.625 L81.625,63.125 C81.625,63.0559644 81.6809644,63 81.75,63 C81.8190356,63 81.875,63.0559644 81.875,63.125 L81.875,63.625 Z" id="cross" fill="#FFFFFF" mask="url(#mask-2)"></path>
            <path d="M78.875,82.625 L79.375,82.625 C79.4440356,82.625 79.5,82.6809644 79.5,82.75 C79.5,82.8190356 79.4440356,82.875 79.375,82.875 L78.875,82.875 L78.875,83.375 C78.875,83.4440356 78.8190356,83.5 78.75,83.5 C78.6809644,83.5 78.625,83.4440356 78.625,83.375 L78.625,82.875 L78.125,82.875 C78.0559644,82.875 78,82.8190356 78,82.75 C78,82.6809644 78.0559644,82.625 78.125,82.625 L78.625,82.625 L78.625,82.125 C78.625,82.0559644 78.6809644,82 78.75,82 C78.8190356,82 78.875,82.0559644 78.875,82.125 L78.875,82.625 Z" id="cross" fill="#FFFFFF" mask="url(#mask-2)"></path>
            <path d="M36.625,64.625 L36.125,64.625 C36.0559644,64.625 36,64.6809644 36,64.75 C36,64.8190356 36.0559644,64.875 36.125,64.875 L36.625,64.875 L36.625,65.375 C36.625,65.4440356 36.6809644,65.5 36.75,65.5 C36.8190356,65.5 36.875,65.4440356 36.875,65.375 L36.875,64.875 L37.375,64.875 C37.4440356,64.875 37.5,64.8190356 37.5,64.75 C37.5,64.6809644 37.4440356,64.625 37.375,64.625 L36.875,64.625 L36.875,64.125 C36.875,64.0559644 36.8190356,64 36.75,64 C36.6809644,64 36.625,64.0559644 36.625,64.125 L36.625,64.625 Z" id="cross" fill="#FFFFFF" mask="url(#mask-2)"></path>
            <path d="M43.625,72.625 L43.125,72.625 C43.0559644,72.625 43,72.6809644 43,72.75 C43,72.8190356 43.0559644,72.875 43.125,72.875 L43.625,72.875 L43.625,73.375 C43.625,73.4440356 43.6809644,73.5 43.75,73.5 C43.8190356,73.5 43.875,73.4440356 43.875,73.375 L43.875,72.875 L44.375,72.875 C44.4440356,72.875 44.5,72.8190356 44.5,72.75 C44.5,72.6809644 44.4440356,72.625 44.375,72.625 L43.875,72.625 L43.875,72.125 C43.875,72.0559644 43.8190356,72 43.75,72 C43.6809644,72 43.625,72.0559644 43.625,72.125 L43.625,72.625 Z" id="cross" fill="#FFFFFF" mask="url(#mask-2)"></path>
            <path d="M96.5,90 C95.1192881,90 94,88.8807119 94,87.5 C94,86.1192881 95.1192881,85 96.5,85 C97.8807119,85 99,86.1192881 99,87.5 C99,88.8807119 97.8807119,90 96.5,90 Z" id="circle" fill="#A23B72" mask="url(#mask-2)"></path>
            <path d="M88.5,81 C88.2238576,81 88,80.7761424 88,80.5 C88,80.2238576 88.2238576,80 88.5,80 C88.7761424,80 89,80.2238576 89,80.5 C89,80.7761424 88.7761424,81 88.5,81 Z" id="circle" fill="#FFFFFF" fill-rule="nonzero" mask="url(#mask-2)"></path>
            <path d="M75.625,72.25 C75.279822,72.25 75,71.970178 75,71.625 C75,71.279822 75.279822,71 75.625,71 C75.970178,71 76.25,71.279822 76.25,71.625 C76.25,71.970178 75.970178,72.25 75.625,72.25 Z M75.625,72 C75.8321068,72 76,71.8321068 76,71.625 C76,71.4178932 75.8321068,71.25 75.625,71.25 C75.4178932,71.25 75.25,71.4178932 75.25,71.625 C75.25,71.8321068 75.4178932,72 75.625,72 Z" id="circle" fill="#FFFFFF" fill-rule="nonzero" mask="url(#mask-2)"></path>
            <path d="M26.625,90.25 C26.279822,90.25 26,89.970178 26,89.625 C26,89.279822 26.279822,89 26.625,89 C26.970178,89 27.25,89.279822 27.25,89.625 C27.25,89.970178 26.970178,90.25 26.625,90.25 Z M26.625,90 C26.8321068,90 27,89.8321068 27,89.625 C27,89.4178932 26.8321068,89.25 26.625,89.25 C26.4178932,89.25 26.25,89.4178932 26.25,89.625 C26.25,89.8321068 26.4178932,90 26.625,90 Z" id="circle" fill="#FFFFFF" fill-rule="nonzero" mask="url(#mask-2)"></path>
            <path d="M45.5,66 C45.2238576,66 45,65.7761424 45,65.5 C45,65.2238576 45.2238576,65 45.5,65 C45.7761424,65 46,65.2238576 46,65.5 C46,65.7761424 45.7761424,66 45.5,66 Z" id="circle" fill="#FFFFFF" fill-rule="nonzero" mask="url(#mask-2)"></path>
            <path d="M65.5,65 C65.2238576,65 65,64.7761424 65,64.5 C65,64.2238576 65.2238576,64 65.5,64 C65.7761424,64 66,64.2238576 66,64.5 C66,64.7761424 65.7761424,65 65.5,65 Z" id="circle" fill="#FFFFFF" fill-rule="nonzero" mask="url(#mask-2)"></path>
            <path d="M68.5,79 C68.2238576,79 68,78.7761424 68,78.5 C68,78.2238576 68.2238576,78 68.5,78 C68.7761424,78 69,78.2238576 69,78.5 C69,78.7761424 68.7761424,79 68.5,79 Z" id="circle" fill="#FFFFFF" fill-rule="nonzero" mask="url(#mask-2)"></path>
            <path d="M78.5,92 C78.2238576,92 78,91.7761424 78,91.5 C78,91.2238576 78.2238576,91 78.5,91 C78.7761424,91 79,91.2238576 79,91.5 C79,91.7761424 78.7761424,92 78.5,92 Z" id="circle" fill="#FFFFFF" fill-rule="nonzero" mask="url(#mask-2)"></path>
            <path d="M18.5,82 C18.2238576,82 18,81.7761424 18,81.5 C18,81.2238576 18.2238576,81 18.5,81 C18.7761424,81 19,81.2238576 19,81.5 C19,81.7761424 18.7761424,82 18.5,82 Z" id="circle" fill="#FFFFFF" fill-rule="nonzero" mask="url(#mask-2)"></path>
            <path d="M96.007274,72.0153042 L97.4277868,69.5549038 L96.8326719,69.2113141 L96.2794668,70.1694935 L96.074563,70.2243973 L95.8414023,70.0897819 L95.7864985,69.8848781 L96.3397036,68.9266987 L95.7445887,68.5831089 L95.1913836,69.5412883 L94.9864798,69.5961921 L94.2869977,69.192346 L94.2320939,68.9874422 L94.5160683,68.4955842 L93.9986736,68.1968662 L93.7146993,68.6887242 L93.5097955,68.743628 L92.8103134,68.3397819 L92.7554096,68.1348781 L93.3086147,67.1766987 L92.7134998,66.8331089 L92.1602947,67.7912883 L91.9553909,67.8461921 L91.7222302,67.7115768 L91.6673264,67.5066729 L92.2205315,66.5484936 L91.6254166,66.2049038 L90.2049038,68.6653042 L90.8000187,69.0088939 L91.308352,68.1284348 L91.5132558,68.073531 L91.7464165,68.2081463 L91.8013203,68.4130502 L91.292987,69.2935093 L91.8881019,69.6370991 L92.3964352,68.7566399 L92.601339,68.7017361 L93.3008211,69.1055822 L93.3557249,69.3104861 L92.6679044,70.5018261 L93.1852991,70.8005441 L93.8731196,69.609204 L94.0780234,69.5543002 L94.7775054,69.9581463 L94.8324093,70.1630502 L94.3240759,71.0435093 L94.9191908,71.3870991 L95.4275241,70.5066399 L95.632428,70.4517361 L95.8655886,70.5863515 L95.9204925,70.7912553 L95.4121591,71.6717144 L96.007274,72.0153042 Z M95.7905886,70.7162553 L95.557428,70.5816399 L94.9740946,71.5920029 L94.1191721,71.0984131 L94.7025054,70.0880502 L94.0030234,69.684204 L93.2402029,71.0054479 L92.4630006,70.5567299 L93.2258211,69.2354861 L92.526339,68.8316399 L91.9430057,69.8420029 L91.0880832,69.3484131 L91.6714165,68.3380502 L91.4382558,68.2034348 L90.8549225,69.2137977 L90,68.720208 L91.5705128,66 L92.4254353,66.4935897 L91.7972302,67.5816729 L92.0303909,67.7162883 L92.658596,66.6282051 L93.5135185,67.1217949 L92.8853134,68.2098781 L93.5847955,68.6137242 L93.9437698,67.9919624 L94.7209721,68.4406803 L94.3619977,69.0624422 L95.0614798,69.4662883 L95.6896849,68.3782051 L96.5446074,68.8717949 L95.9164023,69.9598781 L96.149563,70.0944935 L96.7777681,69.0064103 L97.6326906,69.5 L96.0621778,72.220208 L95.2072553,71.7266183 L95.7905886,70.7162553 Z" id="iss" fill="#FFFFFF" fill-rule="nonzero" mask="url(#mask-2)"></path>
            <g id="system" mask="url(#mask-2)">
                <g transform="translate(4.000000, 53.000000)">
                    <circle id="star" fill="#F49322" fill-rule="evenodd" cx="12" cy="12" r="2"></circle>
                    <path d="M12,17.075 C9.19715489,17.075 6.925,14.8028451 6.925,12 C6.925,9.19715489 9.19715489,6.925 12,6.925 C14.8028451,6.925 17.075,9.19715489 17.075,12 C17.075,14.8028451 14.8028451,17.075 12,17.075 Z M12,16.925 C14.7200024,16.925 16.925,14.7200024 16.925,12 C16.925,9.27999761 14.7200024,7.075 12,7.075 C9.27999761,7.075 7.075,9.27999761 7.075,12 C7.075,14.7200024 9.27999761,16.925 12,16.925 Z" id="orbit" fill="#FFFFFF" fill-rule="nonzero"></path>
                    <path d="M12,20.075 C7.54030065,20.075 3.925,16.4596994 3.925,12 C3.925,7.54030065 7.54030065,3.925 12,3.925 C16.4596994,3.925 20.075,7.54030065 20.075,12 C20.075,16.4596994 16.4596994,20.075 12,20.075 Z M12,19.925 C16.3768566,19.925 19.925,16.3768566 19.925,12 C19.925,7.62314336 16.3768566,4.075 12,4.075 C7.62314336,4.075 4.075,7.62314336 4.075,12 C4.075,16.3768566 7.62314336,19.925 12,19.925 Z" id="orbit" fill="#FFFFFF" fill-rule="nonzero"></path>
                    <path d="M12,23.075 C5.8834464,23.075 0.925,18.1165536 0.925,12 C0.925,5.8834464 5.8834464,0.925 12,0.925 C18.1165536,0.925 23.075,5.8834464 23.075,12 C23.075,18.1165536 18.1165536,23.075 12,23.075 Z M12,22.925 C18.0337109,22.925 22.925,18.0337109 22.925,12 C22.925,5.96628911 18.0337109,1.075 12,1.075 C5.96628911,1.075 1.075,5.96628911 1.075,12 C1.075,18.0337109 5.96628911,22.925 12,22.925 Z" id="orbit" fill="#FFFFFF" fill-rule="nonzero"></path>
                    <circle id="circle" fill="#FFFFFF" fill-rule="evenodd" cx="9.5" cy="16.5" r="1"></circle>
                    <circle id="circle" fill="#FFFFFF" fill-rule="evenodd" cx="21.5" cy="6.5" r="1"></circle>
                    <circle id="circle" fill="#FFFFFF" fill-rule="evenodd" cx="14.5" cy="7.5" r="1"></circle>
                    <circle id="circle" fill="#FFFFFF" fill-rule="evenodd" cx="19" cy="16" r="1"></circle>
                    <circle id="circle" fill="#FFFFFF" fill-rule="evenodd" cx="2" cy="16" r="1"></circle>
                </g>
            </g>
            <g id="planet" mask="url(#mask-2)" fill="#FFFFFF">
                <g transform="translate(32.000000, 81.000000)">
                    <circle id="circle" fill-rule="evenodd" cx="2" cy="2" r="1"></circle>
                    <path d="M0.659436773,0.886203876 L3.05027125,3.18392796 C3.1000464,3.23176463 3.17917642,3.23019319 3.22701309,3.18041803 C3.27484977,3.13064288 3.27327832,3.05151286 3.22350316,3.00367619 L0.832668692,0.705952102 C0.782893539,0.658115428 0.703763518,0.659686876 0.655926845,0.709462029 C0.608090171,0.759237182 0.60966162,0.838367203 0.659436773,0.886203876 Z" id="ring" fill-rule="nonzero"></path>
                </g>
            </g>
        </g>
    </g>
</svg>