<?xml version="1.0" encoding="UTF-8"?>
<svg width="114px" height="150px" viewBox="0 0 114 150" version="1.1" xmlns="http://www.w3.org/2000/svg" xmlns:xlink="http://www.w3.org/1999/xlink">
    <!-- Generator: Sketch 46.2 (44496) - http://www.bohemiancoding.com/sketch -->
    <title>signatures</title>
    <desc>Created with Sketch.</desc>
    <defs></defs>
    <g id="v4-pages" stroke="none" stroke-width="1" fill="none" fill-rule="evenodd">
        <g id="signatures">
            <polygon id="palm" fill="#FFFFFF" fill-rule="nonzero" points="70.7582314 99.9363767 68.2582314 109.436377 68.7417686 109.563623 71.2417686 100.063623"></polygon>
            <path d="M64.1650504,54.1672979 C62.2531416,55.7155312 61.9583242,58.5205306 63.5065575,60.4324395 C65.0547908,62.3443483 67.8597902,62.6391657 69.7716991,61.0909324 L82.9366171,50.430192 C84.8485259,48.8819587 85.1433433,46.0769593 83.59511,44.1650504 C82.0468767,42.2531416 79.2418773,41.9583242 77.3299684,43.5065575 L64.1650504,54.1672979 Z M63.8503902,53.7787249 L77.0153082,43.1179845 C79.14182,41.3959692 82.2616676,41.7238784 83.983683,43.8503902 C85.7056983,45.976902 85.3777891,49.0967497 83.2512773,50.818765 L70.0863593,61.4795054 C67.9598475,63.2015207 64.8399998,62.8736115 63.1179845,60.7470997 C61.3959692,58.6205878 61.7238784,55.5007402 63.8503902,53.7787249 Z" id="finger" fill="#FFFFFF" fill-rule="nonzero"></path>
            <g id="phone" transform="translate(35.000000, 39.000000)">
                <path d="M2,0 L38,0 C39.1045695,-2.02906125e-16 40,0.8954305 40,2 L40,61 C40,62.1045695 39.1045695,63 38,63 L2,63 C0.8954305,63 1.3527075e-16,62.1045695 0,61 L0,2 C-1.3527075e-16,0.8954305 0.8954305,2.02906125e-16 2,0 Z" id="body" fill="#542B56"></path>
                <polygon id="screen" fill="#1A0D1B" points="4 4 36 4 36 51 4 51"></polygon>
                <polygon id="checkmark" fill="#F49322" fill-rule="nonzero" points="16.6433739 21.753792 15 23.4432506 19.3787195 27 26 20.5459939 24.195413 19 19.221669 23.8480915"></polygon>
                <path d="M20,59.25 C18.7573593,59.25 17.75,58.2426407 17.75,57 C17.75,55.7573593 18.7573593,54.75 20,54.75 C21.2426407,54.75 22.25,55.7573593 22.25,57 C22.25,58.2426407 21.2426407,59.25 20,59.25 Z M20,58.75 C20.9664983,58.75 21.75,57.9664983 21.75,57 C21.75,56.0335017 20.9664983,55.25 20,55.25 C19.0335017,55.25 18.25,56.0335017 18.25,57 C18.25,57.9664983 19.0335017,58.75 20,58.75 Z" id="circle" fill="#1A0D1B" fill-rule="nonzero"></path>
            </g>
            <path d="M75.5,70.25 C72.8766474,70.25 70.75,68.1233526 70.75,65.5 C70.75,62.8766474 72.8766474,60.75 75.5,60.75 C78.1233526,60.75 80.25,62.8766474 80.25,65.5 C80.25,68.1233526 78.1233526,70.25 75.5,70.25 Z M75.5,69.75 C77.8472102,69.75 79.75,67.8472102 79.75,65.5 C79.75,63.1527898 77.8472102,61.25 75.5,61.25 C73.1527898,61.25 71.25,63.1527898 71.25,65.5 C71.25,67.8472102 73.1527898,69.75 75.5,69.75 Z" id="finger" fill="#FFFFFF" fill-rule="nonzero"></path>
            <path d="M75.5,82.25 C72.8766474,82.25 70.75,80.1233526 70.75,77.5 C70.75,74.8766474 72.8766474,72.75 75.5,72.75 C78.1233526,72.75 80.25,74.8766474 80.25,77.5 C80.25,80.1233526 78.1233526,82.25 75.5,82.25 Z M75.5,81.75 C77.8472102,81.75 79.75,79.8472102 79.75,77.5 C79.75,75.1527898 77.8472102,73.25 75.5,73.25 C73.1527898,73.25 71.25,75.1527898 71.25,77.5 C71.25,79.8472102 73.1527898,81.75 75.5,81.75 Z" id="finger" fill="#FFFFFF" fill-rule="nonzero"></path>
            <path d="M75.5,94.25 C72.8766474,94.25 70.75,92.1233526 70.75,89.5 C70.75,86.8766474 72.8766474,84.75 75.5,84.75 C78.1233526,84.75 80.25,86.8766474 80.25,89.5 C80.25,92.1233526 78.1233526,94.25 75.5,94.25 Z M75.5,93.75 C77.8472102,93.75 79.75,91.8472102 79.75,89.5 C79.75,87.1527898 77.8472102,85.25 75.5,85.25 C73.1527898,85.25 71.25,87.1527898 71.25,89.5 C71.25,91.8472102 73.1527898,93.75 75.5,93.75 Z" id="finger" fill="#FFFFFF" fill-rule="nonzero"></path>
            <path d="M50.75,109.75 L50.75,93.3695652 C50.75,87.9847889 46.3847763,83.6195652 41,83.6195652 L39.75,83.6195652 L39.75,67 C39.75,63.8243627 37.1756373,61.25 34,61.25 L30.25,61.25 L30.25,109.75 L50.75,109.75 Z M41,83.1195652 C46.6609187,83.1195652 51.25,87.7086465 51.25,93.3695652 L51.25,110.25 L29.75,110.25 L29.75,60.75 L34,60.75 C37.4517797,60.75 40.25,63.5482203 40.25,67 L40.25,83.1195652 L41,83.1195652 Z" id="thumb" fill="#FFFFFF" fill-rule="nonzero"></path>
        </g>
    </g>
</svg>