<?xml version="1.0" encoding="UTF-8"?>
<svg width="114px" height="150px" viewBox="0 0 114 150" version="1.1" xmlns="http://www.w3.org/2000/svg" xmlns:xlink="http://www.w3.org/1999/xlink">
    <!-- Generator: Sketch 46.2 (44496) - http://www.bohemiancoding.com/sketch -->
    <title>tasks</title>
    <desc>Created with Sketch.</desc>
    <defs></defs>
    <g id="v4-pages" stroke="none" stroke-width="1" fill="none" fill-rule="evenodd">
        <g id="tasks">
            <path d="M25.02,110.847826 L81.13,110.847826 C82.5107119,110.847826 83.63,111.967114 83.63,113.347826 C83.63,114.945929 82.5107119,116.065217 81.13,116.065217 L76.5,116.065217 C74.6313487,116.065217 73.1,117.721191 73.1,119.782609 C73.1,121.844027 74.6313487,123.5 76.5,123.5 L88.2,123.5 C90.0686513,123.5 91.6,121.844027 91.6,119.782609 C91.6,117.997647 90.4418221,116.482368 88.8727978,116.137953 L88.48,116.05173 L88.48,113.347826 C88.48,111.967114 89.5992881,110.847826 90.98,110.847826 L91.32,110.847826 C93.1886513,110.847826 94.72,109.191853 94.72,107.130435 C94.72,105.069017 93.1886513,103.413043 91.32,103.413043 L35.6,103.413043 C34.2192881,103.413043 33.1,102.293755 33.1,100.913043 C33.1,99.3149403 34.2192881,98.1956522 35.6,98.1956522 L92.1,98.1956522 C93.9686513,98.1956522 95.5,96.5396787 95.5,94.4782609 C95.5,92.416843 93.9686513,90.7608696 92.1,90.7608696 L89.42,90.7608696 C88.0392881,90.7608696 86.92,89.6415814 86.92,88.2608696 L86.92,87.6034783 C86.92,86.4657717 87.8422934,85.5434783 88.98,85.5434783 C90.8486513,85.5434783 92.38,83.8875048 92.38,81.826087 C92.38,79.7646691 90.8486513,78.1086957 88.98,78.1086957 L37.16,78.1086957 C35.7792881,78.1086957 34.66,76.9894075 34.66,75.6086957 C34.66,74.0105925 35.7792881,72.8913043 37.16,72.8913043 L44.52,72.8913043 C46.3886513,72.8913043 47.92,71.2353309 47.92,69.173913 C47.92,67.1124952 46.3886513,65.4565217 44.52,65.4565217 L35.6,65.4565217 C34.2192881,65.4565217 33.1,64.3372336 33.1,62.9565217 C33.1,61.3584186 34.2192881,60.2391304 35.6,60.2391304 L70.21,60.2391304 C71.5907119,60.2391304 72.71,61.3584186 72.71,62.7391304 L72.71,63.7865217 C72.71,64.7088373 71.9623155,65.4565217 71.04,65.4565217 C69.1713487,65.4565217 67.64,67.1124952 67.64,69.173913 C67.64,71.2353309 69.1713487,72.8913043 71.04,72.8913043 L82.74,72.8913043 C84.6086513,72.8913043 86.14,71.2353309 86.14,69.173913 C86.14,67.1124952 84.6086513,65.4565217 82.74,65.4565217 L80.06,65.4565217 C78.6792881,65.4565217 77.56,64.3372336 77.56,62.9565217 C77.56,61.3584186 78.6792881,60.2391304 80.06,60.2391304 L88.98,60.2391304 C90.8486513,60.2391304 92.38,58.583157 92.38,56.5217391 C92.38,54.4603213 90.8486513,52.8043478 88.98,52.8043478 L46.52,52.8043478 C45.1392881,52.8043478 44.02,51.6850597 44.02,50.3043478 C44.02,48.7062446 45.1392881,47.5869565 46.52,47.5869565 L67.92,47.5869565 C69.7886513,47.5869565 71.32,45.930983 71.32,43.8695652 C71.32,41.8081474 69.7886513,40.1521739 67.92,40.1521739 L55.1,40.1521739 C53.7192881,40.1521739 52.6,39.0328858 52.6,37.6521739 C52.6,36.0540707 53.7192881,34.9347826 55.1,34.9347826 L78.06,34.9347826 C79.9286513,34.9347826 81.46,33.2788091 81.46,31.2173913 C81.46,29.1559735 79.9286513,27.5 78.06,27.5 L30.48,27.5 C28.6113487,27.5 27.08,29.1559735 27.08,31.2173913 C27.08,33.2788091 28.6113487,34.9347826 30.48,34.9347826 L45.25,34.9347826 C46.6307119,34.9347826 47.75,36.0540707 47.75,37.4347826 C47.75,39.0328858 46.6307119,40.1521739 45.25,40.1521739 L39.84,40.1521739 C37.9713487,40.1521739 36.44,41.8081474 36.44,43.8695652 C36.44,45.5144381 37.4252303,46.9430543 38.8307997,47.4204455 L39.17,47.5356523 L39.17,50.3043478 C39.17,51.6850597 38.0507119,52.8043478 36.67,52.8043478 L25.02,52.8043478 C23.1513487,52.8043478 21.62,54.4603213 21.62,56.5217391 C21.62,58.583157 23.1513487,60.2391304 25.02,60.2391304 L25.75,60.2391304 C27.1307119,60.2391304 28.25,61.3584186 28.25,62.7391304 C28.25,64.3372336 27.1307119,65.4565217 25.75,65.4565217 L25.02,65.4565217 C23.1513487,65.4565217 21.62,67.1124952 21.62,69.173913 C21.62,71.2353309 23.1513487,72.8913043 25.02,72.8913043 L27.31,72.8913043 C28.6907119,72.8913043 29.81,74.0105925 29.81,75.3913043 C29.81,76.9894075 28.6907119,78.1086957 27.31,78.1086957 L23.46,78.1086957 C21.5913487,78.1086957 20.06,79.7646691 20.06,81.826087 C20.06,83.8875048 21.5913487,85.5434783 23.46,85.5434783 L79.57,85.5434783 C80.9507119,85.5434783 82.07,86.6627664 82.07,88.0434783 C82.07,89.6415814 80.9507119,90.7608696 79.57,90.7608696 L21.9,90.7608696 C20.0313487,90.7608696 18.5,92.416843 18.5,94.4782609 C18.5,96.5396787 20.0313487,98.1956522 21.9,98.1956522 L25.75,98.1956522 C27.1307119,98.1956522 28.25,99.3149403 28.25,100.695652 C28.25,102.293755 27.1307119,103.413043 25.75,103.413043 L25.02,103.413043 C23.1513487,103.413043 21.62,105.069017 21.62,107.130435 C21.62,109.191853 23.1513487,110.847826 25.02,110.847826 Z M25.02,111.347826 C22.8660895,111.347826 21.12,109.459636 21.12,107.130435 C21.12,104.801234 22.8660895,102.913043 25.02,102.913043 L25.75,102.913043 C26.8545695,102.913043 27.75,102.017613 27.75,100.913043 C27.75,99.5910827 26.8545695,98.6956522 25.75,98.6956522 L21.9,98.6956522 C19.7460895,98.6956522 18,96.8074618 18,94.4782609 C18,92.14906 19.7460895,90.2608696 21.9,90.2608696 L79.57,90.2608696 C80.6745695,90.2608696 81.57,89.3654391 81.57,88.2608696 C81.57,86.9389088 80.6745695,86.0434783 79.57,86.0434783 L23.46,86.0434783 C21.3060895,86.0434783 19.56,84.1552879 19.56,81.826087 C19.56,79.4968861 21.3060895,77.6086957 23.46,77.6086957 L27.31,77.6086957 C28.4145695,77.6086957 29.31,76.7132652 29.31,75.6086957 C29.31,74.2867348 28.4145695,73.3913043 27.31,73.3913043 L25.02,73.3913043 C22.8660895,73.3913043 21.12,71.5031139 21.12,69.173913 C21.12,66.8447121 22.8660895,64.9565217 25.02,64.9565217 L25.75,64.9565217 C26.8545695,64.9565217 27.75,64.0610912 27.75,62.9565217 C27.75,61.6345609 26.8545695,60.7391304 25.75,60.7391304 L25.02,60.7391304 C22.8660895,60.7391304 21.12,58.85094 21.12,56.5217391 C21.12,54.1925382 22.8660895,52.3043478 25.02,52.3043478 L36.67,52.3043478 C37.7745695,52.3043478 38.67,51.4089173 38.67,50.3043478 L38.67,47.8938834 C37.0877283,47.3564765 35.94,45.757962 35.94,43.8695652 C35.94,41.5403643 37.6860895,39.6521739 39.84,39.6521739 L45.25,39.6521739 C46.3545695,39.6521739 47.25,38.7567434 47.25,37.6521739 C47.25,36.3302131 46.3545695,35.4347826 45.25,35.4347826 L30.48,35.4347826 C28.3260895,35.4347826 26.58,33.5465922 26.58,31.2173913 C26.58,28.8881904 28.3260895,27 30.48,27 L78.06,27 C80.2139105,27 81.96,28.8881904 81.96,31.2173913 C81.96,33.5465922 80.2139105,35.4347826 78.06,35.4347826 L55.1,35.4347826 C53.9954305,35.4347826 53.1,36.3302131 53.1,37.4347826 C53.1,38.7567434 53.9954305,39.6521739 55.1,39.6521739 L67.92,39.6521739 C70.0739105,39.6521739 71.82,41.5403643 71.82,43.8695652 C71.82,46.1987661 70.0739105,48.0869565 67.92,48.0869565 L46.52,48.0869565 C45.4154305,48.0869565 44.52,48.982387 44.52,50.0869565 C44.52,51.4089173 45.4154305,52.3043478 46.52,52.3043478 L88.98,52.3043478 C91.1339105,52.3043478 92.88,54.1925382 92.88,56.5217391 C92.88,58.85094 91.1339105,60.7391304 88.98,60.7391304 L80.06,60.7391304 C78.9554305,60.7391304 78.06,61.6345609 78.06,62.7391304 C78.06,64.0610912 78.9554305,64.9565217 80.06,64.9565217 L82.74,64.9565217 C84.8939105,64.9565217 86.64,66.8447121 86.64,69.173913 C86.64,71.5031139 84.8939105,73.3913043 82.74,73.3913043 L71.04,73.3913043 C68.8860895,73.3913043 67.14,71.5031139 67.14,69.173913 C67.14,66.8447121 68.8860895,64.9565217 71.04,64.9565217 C71.6861732,64.9565217 72.21,64.4326949 72.21,63.7865217 L72.21,62.7391304 C72.21,61.6345609 71.3145695,60.7391304 70.21,60.7391304 L35.6,60.7391304 C34.4954305,60.7391304 33.6,61.6345609 33.6,62.7391304 C33.6,64.0610912 34.4954305,64.9565217 35.6,64.9565217 L44.52,64.9565217 C46.6739105,64.9565217 48.42,66.8447121 48.42,69.173913 C48.42,71.5031139 46.6739105,73.3913043 44.52,73.3913043 L37.16,73.3913043 C36.0554305,73.3913043 35.16,74.2867348 35.16,75.3913043 C35.16,76.7132652 36.0554305,77.6086957 37.16,77.6086957 L88.98,77.6086957 C91.1339105,77.6086957 92.88,79.4968861 92.88,81.826087 C92.88,84.1552879 91.1339105,86.0434783 88.98,86.0434783 C88.1184358,86.0434783 87.42,86.7419141 87.42,87.6034783 L87.42,88.2608696 C87.42,89.3654391 88.3154305,90.2608696 89.42,90.2608696 L92.1,90.2608696 C94.2539105,90.2608696 96,92.14906 96,94.4782609 C96,96.8074618 94.2539105,98.6956522 92.1,98.6956522 L35.6,98.6956522 C34.4954305,98.6956522 33.6,99.5910827 33.6,100.695652 C33.6,102.017613 34.4954305,102.913043 35.6,102.913043 L91.32,102.913043 C93.4739105,102.913043 95.22,104.801234 95.22,107.130435 C95.22,109.459636 93.4739105,111.347826 91.32,111.347826 L90.98,111.347826 C89.8754305,111.347826 88.98,112.243257 88.98,113.347826 L88.98,115.64958 C90.7601475,116.040339 92.1,117.74227 92.1,119.782609 C92.1,122.11181 90.3539105,124 88.2,124 L76.5,124 C74.3460895,124 72.6,122.11181 72.6,119.782609 C72.6,117.453408 74.3460895,115.565217 76.5,115.565217 L81.13,115.565217 C82.2345695,115.565217 83.13,114.669787 83.13,113.565217 C83.13,112.243257 82.2345695,111.347826 81.13,111.347826 L25.02,111.347826 Z" id="fog" fill="#FFFFFF" fill-rule="nonzero"></path>
            <path d="M76.7338145,93.3632854 C77.6571783,92.3360553 78.0227431,90.8580638 77.5652234,89.4499631 C77.1077037,88.0418624 75.943214,87.0610158 74.5924063,86.7727087 L69.0000468,69.561196 C69.9041285,68.5352871 70.2584818,67.0719858 69.8053061,65.6772544 C69.3477864,64.2691536 68.1832967,63.288307 66.8324889,63 L67.594176,65.3442318 C67.9355068,66.3947399 67.360605,67.5230481 66.310097,67.8643789 C65.259589,68.2057096 64.1312807,67.6308078 63.78995,66.5802998 L63.0282629,64.236068 C62.1048991,65.2632981 61.7393343,66.7412896 62.1968539,68.1493903 C62.6586907,69.5707777 63.8409023,70.55681 65.2079587,70.8346208 L70.7881802,88.0087767 C69.8648164,89.0360069 69.4992516,90.5139983 69.9567713,91.922099 C70.4142909,93.3301998 71.5787806,94.3110464 72.9295884,94.5993534 L72.1679013,92.2551216 C71.8265705,91.2046136 72.4014723,90.0763053 73.4519803,89.7349746 C74.5024884,89.3936438 75.6307966,89.9685456 75.9721274,91.0190536 L76.7338145,93.3632854 L76.7338145,93.3632854 Z" id="wrench" fill="#542B56"></path>
            <g id="handle" transform="translate(43.000000, 66.000000)" fill="#F49322">
                <rect id="Rectangle-3" x="0" y="2" width="44" height="4"></rect>
                <polygon id="Rectangle-30" points="2 0 6 0 8 13.5 2 13.5"></polygon>
                <polygon id="Rectangle-30" transform="translate(39.000000, 6.750000) scale(-1, 1) translate(-39.000000, -6.750000) " points="36 0 40 0 42 13.5 36 13.5"></polygon>
            </g>
            <path d="M77.9515578,79.6281596 L84.6444175,65.9057636 C85.3333107,65.857011 85.9781429,65.4523933 86.3026614,64.7870319 L88.0561459,61.1918557 L83.5621757,59 L81.8086911,62.5951762 C81.4841727,63.2605376 81.5623279,64.0177798 81.9480354,64.5906501 L75.2551757,78.3130461 L74.3563816,77.874675 L73.5301808,81.7737707 L68,90.9071886 L72.4939702,93.0990444 L76.2864825,83.1181089 L78.8503519,80.0665307 L77.9515578,79.6281596 Z" id="driver" fill="#542B56"></path>
            <path d="M55.5465629,89 C54.9266475,88.9006337 54.3276155,88.7387399 53.7561369,88.5209898 L53.7694491,87.7173185 C53.7805664,87.0461583 53.2455913,86.4930615 52.5745487,86.4819423 C52.3478101,86.4781852 52.1245439,86.5379588 51.9300014,86.6545028 L51.2424594,87.0663866 C50.7622105,86.6744974 50.3226592,86.2346093 49.9311197,85.7540379 L50.3407098,85.0716036 C50.6861305,84.4960844 50.4996806,83.7494659 49.9242623,83.4039846 C49.7295,83.2870493 49.5058663,83.2270553 49.2787379,83.2308105 L48.4801638,83.2440136 C48.2623031,82.672019 48.10037,82.0724268 48.0010489,81.4519228 L48.6963513,81.0660478 C49.2831975,80.7403633 49.4949572,80.0005275 49.1693297,79.4135783 C49.0590198,79.2147429 48.8951519,79.0508462 48.6963513,78.940517 L48,78.5540599 C48.0988187,77.9337883 48.2601963,77.3343794 48.4774607,76.7625066 L49.2787379,76.7757543 C49.9497808,76.7868489 50.502761,76.2517596 50.5138535,75.5805989 C50.5176081,75.3534306 50.4576246,75.1297577 50.3407098,74.9349612 L49.9286489,74.2484102 C50.3194373,73.7683421 50.7581183,73.3288279 51.2374083,72.9371523 L51.9300014,73.352062 C52.5057581,73.6969789 53.2520624,73.5097644 53.5969188,72.9339067 C53.7134424,72.7393301 53.7732055,72.5160247 53.7694491,72.2892464 L53.7560192,71.4784692 C54.3264115,71.2611239 54.9242534,71.099423 55.5429128,71 L55.9379778,71.7105303 C56.2641589,72.2971718 57.0040645,72.5082703 57.5906031,72.182032 C57.7886183,72.0718941 57.9519036,71.9085802 58.0620222,71.7105303 L58.4570872,71 C59.0757466,71.099423 59.6735885,71.2611239 60.2439808,71.4784692 L60.2305509,72.2892464 C60.2194336,72.9604066 60.7544087,73.5135034 61.4254513,73.5246226 C61.6521899,73.5283797 61.8754561,73.468606 62.0699986,73.352062 L62.7625917,72.9371523 C63.2418817,73.3288279 63.6805627,73.7683421 64.0713511,74.2484102 L63.6592902,74.9349612 C63.3138695,75.5104805 63.5003194,76.2570989 64.0757377,76.6025802 C64.2705,76.7195156 64.4941337,76.7795095 64.7212621,76.7757543 L65.5225393,76.7625066 C65.7398037,77.3343794 65.9011813,77.9337883 66,78.5540599 L65.3036487,78.940517 C64.7168025,79.2662016 64.5050428,80.0060374 64.8306703,80.5929865 C64.9409802,80.7918219 65.1048481,80.9557186 65.3036487,81.0660478 L65.9989511,81.4519228 C65.89963,82.0724268 65.7376969,82.672019 65.5198362,83.2440136 L64.7212621,83.2308105 C64.0502192,83.219716 63.497239,83.7548053 63.4861465,84.425966 C63.4823919,84.6531343 63.5423754,84.8768072 63.6592902,85.0716036 L64.0688803,85.7540379 C63.6773408,86.2346093 63.2377895,86.6744974 62.7575406,87.0663866 L62.0699986,86.6545028 C61.4942419,86.3095859 60.7479376,86.4968005 60.4030812,87.0726582 C60.2865576,87.2672347 60.2267945,87.4905401 60.2305509,87.7173185 L60.2438631,88.5209898 C59.6723845,88.7387399 59.0733525,88.9006337 58.4534371,89 L58.0620222,88.2960346 C57.7358411,87.709393 56.9959355,87.4982945 56.4093969,87.8245328 C56.2113817,87.9346707 56.0480964,88.0979847 55.9379778,88.2960346 L55.5465629,89 Z M57,83 C58.6568542,83 60,81.6568542 60,80 C60,78.3431458 58.6568542,77 57,77 C55.3431458,77 54,78.3431458 54,80 C54,81.6568542 55.3431458,83 57,83 Z" id="gear" fill="#542B56"></path>
            <g id="box" transform="translate(45.000000, 79.000000)">
                <rect id="Rectangle-2" fill="#F49322" x="0" y="0" width="42" height="3"></rect>
                <rect id="Rectangle" fill="#F49322" x="1" y="3" width="40" height="14"></rect>
                <polygon id="shadow" fill-opacity="0.2" fill="#000000" points="1 3 41 3 41 5"></polygon>
            </g>
            <g id="tablet" transform="translate(30.000000, 71.000000)">
                <path d="M1,0 L17,0 C17.5522847,-1.01453063e-16 18,0.44771525 18,1 L18,24 C18,24.5522847 17.5522847,25 17,25 L1,25 C0.44771525,25 6.76353751e-17,24.5522847 0,24 L0,1 C-6.76353751e-17,0.44771525 0.44771525,1.01453063e-16 1,0 Z" id="body" fill="#542B56"></path>
                <rect id="screen" fill="#1A0D1B" x="2" y="2" width="14" height="19"></rect>
            </g>
        </g>
    </g>
</svg>